<?xml version="1.0" encoding="utf-8"?>
<svg viewBox="12.536 12.745 14.552 17.13" xmlns="http://www.w3.org/2000/svg">
  <path d="M 18.355 14.363 L 21.355 14.363 C 21.631 14.363 21.855 14.587 21.855 14.863 L 21.855 15.863 L 17.855 15.863 L 17.855 14.863 C 17.855 14.587 18.079 14.363 18.355 14.363 M 22.855 15.863 L 22.855 14.863 C 22.855 14.034 22.183 13.363 21.355 13.363 L 18.355 13.363 C 17.526 13.363 16.855 14.034 16.855 14.863 L 16.855 15.863 L 13.355 15.863 C 12.97 15.863 12.729 16.28 12.922 16.613 C 13.011 16.768 13.176 16.863 13.355 16.863 L 13.893 16.863 L 14.746 27.523 C 14.829 28.562 15.697 29.363 16.74 29.363 L 22.97 29.363 C 24.013 29.363 24.88 28.562 24.964 27.523 L 25.817 16.863 L 26.355 16.863 C 26.74 16.863 26.98 16.446 26.788 16.113 C 26.699 15.958 26.534 15.863 26.355 15.863 L 22.855 15.863 Z M 24.813 16.863 L 23.967 27.443 C 23.925 27.963 23.491 28.363 22.97 28.363 L 16.74 28.363 C 16.219 28.363 15.785 27.963 15.743 27.443 L 14.897 16.863 L 24.813 16.863 Z M 17.326 17.863 C 17.601 17.847 17.838 18.057 17.854 18.333 L 18.354 26.833 C 18.369 27.218 17.963 27.475 17.622 27.296 C 17.47 27.216 17.37 27.064 17.356 26.893 L 16.855 18.393 C 16.838 18.117 17.049 17.879 17.325 17.863 L 17.326 17.863 Z M 22.384 17.863 C 22.66 17.879 22.871 18.117 22.854 18.393 L 22.354 26.893 C 22.338 27.278 21.912 27.501 21.587 27.295 C 21.43 27.196 21.341 27.018 21.356 26.833 L 21.856 18.333 C 21.872 18.057 22.108 17.847 22.384 17.863 M 19.855 17.863 C 20.131 17.863 20.355 18.087 20.355 18.363 L 20.355 26.863 C 20.355 27.248 19.938 27.488 19.605 27.296 C 19.45 27.207 19.355 27.042 19.355 26.863 L 19.355 18.363 C 19.355 18.087 19.579 17.863 19.855 17.863" style="fill: rgb(248, 160, 220);"/>
</svg>