<?xml version="1.0" encoding="utf-8"?>
<svg viewBox="12.159 14.817 14.929 15.058" xmlns="http://www.w3.org/2000/svg">
  <path d="M 26.993 16.306 C 27.187 16.501 27.187 16.816 26.993 17.012 L 25.95 18.056 L 23.95 16.056 L 24.993 15.012 C 25.188 14.816 25.505 14.816 25.7 15.012 L 26.993 16.305 L 26.993 16.306 Z M 25.243 18.762 L 23.243 16.762 L 16.43 23.576 C 16.375 23.631 16.333 23.698 16.309 23.772 L 15.504 26.186 C 15.443 26.368 15.603 26.548 15.792 26.509 C 15.801 26.507 15.811 26.505 15.82 26.502 L 18.234 25.697 C 18.308 25.672 18.375 25.631 18.43 25.577 L 25.243 18.763 L 25.243 18.762 Z" style="fill: rgb(248, 160, 220);"/>
  <path fill-rule="evenodd" d="M 12.491 27.866 C 12.491 28.694 13.162 29.366 13.991 29.366 L 24.991 29.366 C 25.819 29.366 26.491 28.694 26.491 27.866 L 26.491 21.866 C 26.491 21.481 26.074 21.24 25.741 21.433 C 25.586 21.522 25.491 21.687 25.491 21.866 L 25.491 27.866 C 25.491 28.142 25.267 28.366 24.991 28.366 L 13.991 28.366 C 13.715 28.366 13.491 28.142 13.491 27.866 L 13.491 16.866 C 13.491 16.589 13.715 16.366 13.991 16.366 L 20.491 16.366 C 20.876 16.366 21.116 15.949 20.924 15.616 C 20.835 15.461 20.67 15.366 20.491 15.366 L 13.991 15.366 C 13.162 15.366 12.491 16.037 12.491 16.866 L 12.491 27.866 Z" style="fill: rgb(248, 160, 220);"/>
</svg>